<?xml version="1.0" encoding="UTF-8"?>
<!-- Generator: Adobe Illustrator 15.0.2, SVG Export Plug-In . SVG Version: 6.00 Build 0)  -->
<!DOCTYPE svg PUBLIC "-//W3C//DTD SVG 1.1//EN" "http://www.w3.org/Graphics/SVG/1.1/DTD/svg11.dtd">
<svg version="1.1" xmlns="http://www.w3.org/2000/svg" xmlns:xlink="http://www.w3.org/1999/xlink" x="0px" y="0px" width="80px" height="80px" viewBox="0 0 80 80" enable-background="new 0 0 80 80" xml:space="preserve">
<g id="DO_NOT_EDIT_-_BOUNDING_BOX">
	<rect id="BOUNDING_BOX" fill="none" width="80" height="80"/>
</g>
<g id="PLACE_YOUR_BACKGROUND_HERE">
	<g id="INDIVIDUAL_BACKGROUND_1_">
		<defs>
			<path id="CLIPPING_PATH__x28_MASK_x29__2_" d="M79,40c0,28.893-10.105,39-39,39S1,68.893,1,40C1,11.106,11.105,1,40,1     S79,11.106,79,40z"/>
		</defs>
		<clipPath id="CLIPPING_PATH__x28_MASK_x29__1_">
			<use xlink:href="#CLIPPING_PATH__x28_MASK_x29__2_" overflow="visible"/>
		</clipPath>
		<rect id="INVISIVLE_PATH_2_" clip-path="url(#CLIPPING_PATH__x28_MASK_x29__1_)" fill="none" width="80" height="80"/>
	</g>
</g>
<g id="PLACE_YOUR_GLYPH_HERE">
</g>
<g id="DO_NOT_EDIT_-_FOCAL_ZONE_GUIDES">
</g>
<g id="DO_NOT_EDIT_-_HIGHLIGHT">
	<defs>
		<filter id="Adobe_OpacityMaskFilter" filterUnits="userSpaceOnUse" x="1.023" y="1" width="77.953" height="78">
			<feFlood style="flood-color:white;flood-opacity:1" result="back"/>
			<feBlend in="SourceGraphic" in2="back" mode="normal"/>
		</filter>
	</defs>
	<mask maskUnits="userSpaceOnUse" x="1.023" y="1" width="77.953" height="78" id="OVERLAY_2_">
		<g filter="url(#Adobe_OpacityMaskFilter)">
			<defs>
				<filter id="Adobe_OpacityMaskFilter_1_" filterUnits="userSpaceOnUse" x="1.023" y="1" width="77.953" height="78">
					<feFlood style="flood-color:white;flood-opacity:1" result="back"/>
					<feBlend in="SourceGraphic" in2="back" mode="normal"/>
				</filter>
			</defs>
			<mask maskUnits="userSpaceOnUse" x="1.023" y="1" width="77.953" height="78" id="OVERLAY_2_">
				<g filter="url(#Adobe_OpacityMaskFilter_1_)">
				</g>
			</mask>
			<linearGradient id="OVERLAY_3_" gradientUnits="userSpaceOnUse" x1="39.9995" y1="5.1816" x2="39.9995" y2="58.8019">
				<stop offset="0" style="stop-color:#FFFFFF"/>
				<stop offset="1" style="stop-color:#D6D6D6"/>
			</linearGradient>
			<path id="OVERLAY_4_" mask="url(#OVERLAY_2_)" fill="url(#OVERLAY_3_)" d="M78.977,40c0,28.893-10.1,39-38.977,39     S1.023,68.893,1.023,40c0-28.894,10.1-39,38.977-39S78.977,11.106,78.977,40z"/>
		</g>
	</mask>
	<linearGradient id="OVERLAY_5_" gradientUnits="userSpaceOnUse" x1="39.9995" y1="5.1816" x2="39.9995" y2="58.8019">
		<stop offset="0" style="stop-color:#FFFFFF"/>
		<stop offset="1" style="stop-color:#000000"/>
	</linearGradient>
	<path id="OVERLAY_1_" opacity="0.5" fill="url(#OVERLAY_5_)" d="M78.977,40c0,28.893-10.1,39-38.977,39S1.023,68.893,1.023,40   c0-28.894,10.1-39,38.977-39S78.977,11.106,78.977,40z"/>
	<defs>
		<filter id="Adobe_OpacityMaskFilter_2_" filterUnits="userSpaceOnUse" x="1" y="1" width="78" height="78">
			<feFlood style="flood-color:white;flood-opacity:1" result="back"/>
			<feBlend in="SourceGraphic" in2="back" mode="normal"/>
		</filter>
	</defs>
	<mask maskUnits="userSpaceOnUse" x="1" y="1" width="78" height="78" id="HIGHLIGHT_2_">
		<g filter="url(#Adobe_OpacityMaskFilter_2_)">
			<defs>
				<filter id="Adobe_OpacityMaskFilter_3_" filterUnits="userSpaceOnUse" x="1" y="1" width="78" height="78">
					<feFlood style="flood-color:white;flood-opacity:1" result="back"/>
					<feBlend in="SourceGraphic" in2="back" mode="normal"/>
				</filter>
			</defs>
			<mask maskUnits="userSpaceOnUse" x="1" y="1" width="78" height="78" id="HIGHLIGHT_2_">
				<g filter="url(#Adobe_OpacityMaskFilter_3_)">
				</g>
			</mask>
			<linearGradient id="HIGHLIGHT_3_" gradientUnits="userSpaceOnUse" x1="39.9995" y1="1.2471" x2="39.9995" y2="78.5111">
				<stop offset="0" style="stop-color:#FFFFFF"/>
				<stop offset="1" style="stop-color:#000000"/>
			</linearGradient>
			<path id="HIGHLIGHT_4_" mask="url(#HIGHLIGHT_2_)" fill="url(#HIGHLIGHT_3_)" d="M39.999,1C11.105,1,1,11.106,1,40     c0,28.893,10.105,39,38.999,39C68.896,79,79,68.893,79,40C79,11.106,68.896,1,39.999,1z M39.999,78.025     C11.57,78.025,1.976,68.43,1.976,40c0-28.429,9.595-38.024,38.023-38.024c28.43,0,38.024,9.596,38.024,38.024     C78.023,68.43,68.429,78.025,39.999,78.025z"/>
		</g>
	</mask>
	<linearGradient id="HIGHLIGHT_5_" gradientUnits="userSpaceOnUse" x1="39.9995" y1="1.2471" x2="39.9995" y2="78.5111">
		<stop offset="0" style="stop-color:#FFFFFF"/>
		<stop offset="1" style="stop-color:#FFFFFF"/>
	</linearGradient>
	<path id="HIGHLIGHT_1_" opacity="0.25" fill="url(#HIGHLIGHT_5_)" d="M39.999,1C11.105,1,1,11.106,1,40   c0,28.893,10.105,39,38.999,39C68.896,79,79,68.893,79,40C79,11.106,68.896,1,39.999,1z M39.999,78.025   C11.57,78.025,1.976,68.43,1.976,40c0-28.429,9.595-38.024,38.023-38.024c28.43,0,38.024,9.596,38.024,38.024   C78.023,68.43,68.429,78.025,39.999,78.025z"/>
</g>
</svg>